<mxfile host="app.diagrams.net" modified="2023-11-22T09:24:36.816Z" agent="Mozilla/5.0 (Windows NT 10.0; Win64; x64) AppleWebKit/537.36 (KHTML, like Gecko) Chrome/119.0.0.0 Safari/537.36 Edg/119.0.0.0" etag="lvkcjR5QOyRxlJm-UrSe" version="22.1.3" type="github">
  <diagram name="Page-1" id="7GanOW8ySFRlc4NZYlJ1">
    <mxGraphModel dx="2316" dy="1189" grid="1" gridSize="10" guides="1" tooltips="1" connect="1" arrows="1" fold="1" page="1" pageScale="1" pageWidth="850" pageHeight="1100" math="0" shadow="0">
      <root>
        <mxCell id="0" />
        <mxCell id="1" parent="0" />
        <mxCell id="4RgJ7nRyy6jZ5QARvG_D-1" value="" style="ellipse;html=1;shape=startState;fillColor=#000000;strokeColor=#ff0000;" vertex="1" parent="1">
          <mxGeometry x="390" y="20" width="30" height="30" as="geometry" />
        </mxCell>
        <mxCell id="4RgJ7nRyy6jZ5QARvG_D-2" value="" style="edgeStyle=orthogonalEdgeStyle;html=1;verticalAlign=bottom;endArrow=open;endSize=8;strokeColor=#ff0000;rounded=0;" edge="1" source="4RgJ7nRyy6jZ5QARvG_D-1" parent="1">
          <mxGeometry relative="1" as="geometry">
            <mxPoint x="405" y="110" as="targetPoint" />
          </mxGeometry>
        </mxCell>
        <mxCell id="4RgJ7nRyy6jZ5QARvG_D-6" style="edgeStyle=orthogonalEdgeStyle;rounded=0;orthogonalLoop=1;jettySize=auto;html=1;entryX=0.5;entryY=0;entryDx=0;entryDy=0;" edge="1" parent="1" source="4RgJ7nRyy6jZ5QARvG_D-3">
          <mxGeometry relative="1" as="geometry">
            <mxPoint x="405" y="210" as="targetPoint" />
          </mxGeometry>
        </mxCell>
        <mxCell id="4RgJ7nRyy6jZ5QARvG_D-3" value="Show login" style="rounded=1;whiteSpace=wrap;html=1;" vertex="1" parent="1">
          <mxGeometry x="345" y="110" width="120" height="50" as="geometry" />
        </mxCell>
        <mxCell id="4RgJ7nRyy6jZ5QARvG_D-10" style="edgeStyle=orthogonalEdgeStyle;rounded=0;orthogonalLoop=1;jettySize=auto;html=1;entryX=0.5;entryY=0;entryDx=0;entryDy=0;" edge="1" parent="1" source="4RgJ7nRyy6jZ5QARvG_D-8" target="4RgJ7nRyy6jZ5QARvG_D-9">
          <mxGeometry relative="1" as="geometry" />
        </mxCell>
        <mxCell id="4RgJ7nRyy6jZ5QARvG_D-8" value="Login account" style="rounded=1;whiteSpace=wrap;html=1;" vertex="1" parent="1">
          <mxGeometry x="345" y="210" width="120" height="50" as="geometry" />
        </mxCell>
        <mxCell id="4RgJ7nRyy6jZ5QARvG_D-13" style="edgeStyle=orthogonalEdgeStyle;rounded=0;orthogonalLoop=1;jettySize=auto;html=1;entryX=0.5;entryY=0;entryDx=0;entryDy=0;" edge="1" parent="1" source="4RgJ7nRyy6jZ5QARvG_D-9" target="4RgJ7nRyy6jZ5QARvG_D-12">
          <mxGeometry relative="1" as="geometry" />
        </mxCell>
        <mxCell id="4RgJ7nRyy6jZ5QARvG_D-15" value="valid" style="edgeLabel;html=1;align=center;verticalAlign=middle;resizable=0;points=[];" vertex="1" connectable="0" parent="4RgJ7nRyy6jZ5QARvG_D-13">
          <mxGeometry x="-0.312" relative="1" as="geometry">
            <mxPoint as="offset" />
          </mxGeometry>
        </mxCell>
        <mxCell id="4RgJ7nRyy6jZ5QARvG_D-14" style="edgeStyle=orthogonalEdgeStyle;rounded=0;orthogonalLoop=1;jettySize=auto;html=1;entryX=1;entryY=0.5;entryDx=0;entryDy=0;" edge="1" parent="1" source="4RgJ7nRyy6jZ5QARvG_D-9" target="4RgJ7nRyy6jZ5QARvG_D-8">
          <mxGeometry relative="1" as="geometry">
            <mxPoint x="550" y="130" as="targetPoint" />
            <Array as="points">
              <mxPoint x="570" y="355" />
              <mxPoint x="570" y="235" />
            </Array>
          </mxGeometry>
        </mxCell>
        <mxCell id="4RgJ7nRyy6jZ5QARvG_D-16" value="illegal&lt;span style=&quot;color: rgb(34, 34, 34); font-family: &amp;quot;Helvetica Neue&amp;quot;, Helvetica, Arial, sans-serif; font-size: 13px; text-align: start;&quot;&gt;&amp;nbsp;&lt;/span&gt;" style="edgeLabel;html=1;align=center;verticalAlign=middle;resizable=0;points=[];" vertex="1" connectable="0" parent="4RgJ7nRyy6jZ5QARvG_D-14">
          <mxGeometry x="-0.7487" y="3" relative="1" as="geometry">
            <mxPoint as="offset" />
          </mxGeometry>
        </mxCell>
        <mxCell id="4RgJ7nRyy6jZ5QARvG_D-9" value="" style="rhombus;whiteSpace=wrap;html=1;" vertex="1" parent="1">
          <mxGeometry x="367.5" y="320" width="75" height="70" as="geometry" />
        </mxCell>
        <mxCell id="4RgJ7nRyy6jZ5QARvG_D-20" value="" style="edgeStyle=orthogonalEdgeStyle;rounded=0;orthogonalLoop=1;jettySize=auto;html=1;" edge="1" parent="1" source="4RgJ7nRyy6jZ5QARvG_D-12">
          <mxGeometry relative="1" as="geometry">
            <mxPoint x="405.0000000000002" y="556" as="targetPoint" />
            <Array as="points">
              <mxPoint x="405" y="530" />
              <mxPoint x="405" y="530" />
            </Array>
          </mxGeometry>
        </mxCell>
        <mxCell id="4RgJ7nRyy6jZ5QARvG_D-12" value="add the schedule&lt;span style=&quot;color: rgb(34, 34, 34); font-family: &amp;quot;Helvetica Neue&amp;quot;, Helvetica, Arial, sans-serif; font-size: 13px; text-align: start;&quot;&gt;&amp;nbsp;&lt;/span&gt;" style="rounded=1;whiteSpace=wrap;html=1;" vertex="1" parent="1">
          <mxGeometry x="345" y="440" width="120" height="50" as="geometry" />
        </mxCell>
        <mxCell id="4RgJ7nRyy6jZ5QARvG_D-35" value="" style="edgeStyle=orthogonalEdgeStyle;rounded=0;orthogonalLoop=1;jettySize=auto;html=1;" edge="1" parent="1" source="4RgJ7nRyy6jZ5QARvG_D-26" target="4RgJ7nRyy6jZ5QARvG_D-34">
          <mxGeometry relative="1" as="geometry" />
        </mxCell>
        <mxCell id="4RgJ7nRyy6jZ5QARvG_D-26" value="more success" style="rounded=1;whiteSpace=wrap;html=1;" vertex="1" parent="1">
          <mxGeometry x="345" y="700" width="120" height="50" as="geometry" />
        </mxCell>
        <mxCell id="4RgJ7nRyy6jZ5QARvG_D-30" value="" style="edgeStyle=orthogonalEdgeStyle;rounded=0;orthogonalLoop=1;jettySize=auto;html=1;" edge="1" parent="1" source="4RgJ7nRyy6jZ5QARvG_D-29" target="4RgJ7nRyy6jZ5QARvG_D-26">
          <mxGeometry relative="1" as="geometry" />
        </mxCell>
        <mxCell id="4RgJ7nRyy6jZ5QARvG_D-32" value="valid" style="edgeLabel;html=1;align=center;verticalAlign=middle;resizable=0;points=[];" vertex="1" connectable="0" parent="4RgJ7nRyy6jZ5QARvG_D-30">
          <mxGeometry x="-0.181" relative="1" as="geometry">
            <mxPoint as="offset" />
          </mxGeometry>
        </mxCell>
        <mxCell id="4RgJ7nRyy6jZ5QARvG_D-31" style="edgeStyle=orthogonalEdgeStyle;rounded=0;orthogonalLoop=1;jettySize=auto;html=1;entryX=1;entryY=0.5;entryDx=0;entryDy=0;" edge="1" parent="1" source="4RgJ7nRyy6jZ5QARvG_D-29" target="4RgJ7nRyy6jZ5QARvG_D-12">
          <mxGeometry relative="1" as="geometry">
            <Array as="points">
              <mxPoint x="550" y="595" />
              <mxPoint x="550" y="465" />
            </Array>
          </mxGeometry>
        </mxCell>
        <mxCell id="4RgJ7nRyy6jZ5QARvG_D-29" value="" style="rhombus;whiteSpace=wrap;html=1;" vertex="1" parent="1">
          <mxGeometry x="365" y="560" width="80" height="70" as="geometry" />
        </mxCell>
        <mxCell id="4RgJ7nRyy6jZ5QARvG_D-33" value="illegal&lt;span style=&quot;color: rgb(34, 34, 34); font-family: &amp;quot;Helvetica Neue&amp;quot;, Helvetica, Arial, sans-serif; font-size: 13px; text-align: start;&quot;&gt;&amp;nbsp;&lt;/span&gt;" style="edgeLabel;html=1;align=center;verticalAlign=middle;resizable=0;points=[];" vertex="1" connectable="0" parent="1">
          <mxGeometry x="480.00476190476195" y="464.99703703703693" as="geometry">
            <mxPoint x="22" y="123" as="offset" />
          </mxGeometry>
        </mxCell>
        <mxCell id="4RgJ7nRyy6jZ5QARvG_D-34" value="" style="ellipse;html=1;shape=endState;fillColor=#000000;strokeColor=#ff0000;" vertex="1" parent="1">
          <mxGeometry x="390" y="820" width="30" height="30" as="geometry" />
        </mxCell>
      </root>
    </mxGraphModel>
  </diagram>
</mxfile>
